<?xml version="1.0" encoding="utf-8"?>
<!-- Generator: Adobe Illustrator 22.1.0, SVG Export Plug-In . SVG Version: 6.00 Build 0)  -->
<svg version="1.1" id="Layer_1" xmlns="http://www.w3.org/2000/svg" xmlns:xlink="http://www.w3.org/1999/xlink" x="0px" y="0px"
	 viewBox="0 0 243.9 243.9" style="enable-background:new 0 0 243.9 243.9;" xml:space="preserve" fill="#ffffff">
<g id="Affinity_Designer">
	<path d="M243.2,189L151.8,26.5c-0.9-1.6-2.6-2.6-4.5-2.5h-13.1l-3.6-3.6c-1-1-2.3-1.5-3.7-1.5H96.5c-1.8,0-3.5,0.9-4.5,2.5
		l-18,32.2c-0.6,1.3-0.6,2.8,0,4.1l2.1,6.4L42,126.9l-12.7,7.6c-0.8,0.4-1.4,1.1-1.8,1.8L0.7,183.9c-0.9,1.6-0.9,3.5,0,5.1
		l15.2,25.4c0.9,1.6,2.6,2.6,4.5,2.5h5.1c0,2.8,2.3,5.1,5.1,5.1h193c1.8,0,3.4-0.9,4.4-2.4l15.2-25.4
		C244.1,192.6,244.1,190.6,243.2,189z M102.2,178.8l1.4,2.8H64.5l52.4-96.4l47.2,85.9h-57.4c-2.8,0-5.1,2.3-5.1,5.1
		c0,0.8,0.2,1.5,0.5,2.2L102.2,178.8z"/>
</g>
</svg>
