<?xml version="1.0" encoding="utf-8"?>
<!-- Generator: Adobe Illustrator 22.1.0, SVG Export Plug-In . SVG Version: 6.00 Build 0)  -->
<svg version="1.1" id="Layer_1" xmlns="http://www.w3.org/2000/svg" xmlns:xlink="http://www.w3.org/1999/xlink" x="0px" y="0px"
	 viewBox="0 0 243.9 243.9" style="enable-background:new 0 0 243.9 243.9;" xml:space="preserve" fill="#ffffff">
<g>
	<g>
		<defs>
			<rect id="SVGID_1_" x="-1" width="246" height="246"/>
		</defs>
		<clipPath id="SVGID_2_">
			<use xlink:href="#SVGID_1_"  style="overflow:visible;"/>
		</clipPath>
		<path class="st0" d="M239.8,110.7L134.3,5.2C131.1,1.9,126.5,0,122,0c-4.5,0-9.1,1.9-12.3,5.2L87.1,27.8l26.5,26.5
			c2.6-1.3,5.2-1.9,8.4-1.9c11,0,19.4,8.4,19.4,19.4c0,3.2-0.7,5.8-1.9,8.4l25.9,25.9c2.6-1.3,5.2-1.9,8.4-1.9
			c11,0,19.4,8.4,19.4,19.4c0,11-8.4,19.4-19.4,19.4c-11,0-19.4-8.4-19.4-19.4c0-3.2,0.7-5.8,1.9-8.4l-25.9-25.9
			c-0.7,0-1.3,0.6-1.9,0.6v67.3c7.8,2.6,12.9,9.7,12.9,18.1c0,11-8.4,19.4-19.4,19.4c-11,0-19.4-8.4-19.4-19.4
			c0-8.4,5.2-15.6,12.9-18.1v-68c-7.8-2.6-12.9-9.7-12.9-18.1c0-3.2,0.7-5.8,1.9-8.4L78,36.3L4.2,110.7C0.9,113.9-1,118.5-1,123
			c0,4.5,1.9,9.1,5.2,12.3l105.5,105.5c3.2,3.2,7.8,5.2,12.3,5.2c4.5,0,9.1-1.9,12.3-5.2l105.5-105.5c3.2-3.2,5.2-7.8,5.2-12.3
			C245,118.5,243.1,113.9,239.8,110.7L239.8,110.7z M239.8,110.7"/>
	</g>
</g>
</svg>
