<?xml version="1.0" encoding="UTF-8" standalone="no"?><!DOCTYPE svg PUBLIC "-//W3C//DTD SVG 1.1//EN" "http://www.w3.org/Graphics/SVG/1.1/DTD/svg11.dtd"><svg width="100%" height="100%" viewBox="0 0 751 900" version="1.1" xmlns="http://www.w3.org/2000/svg" xmlns:xlink="http://www.w3.org/1999/xlink" xml:space="preserve" xmlns:serif="http://www.serif.com/" style="fill-rule:evenodd;clip-rule:evenodd;stroke-linecap:round;stroke-linejoin:round;stroke-miterlimit:1.5;"><rect id="Plan-de-travail1" serif:id="Plan de travail1" x="0" y="0" width="750.471" height="900" style="fill:none;"/><clipPath id="_clip1"><rect x="0" y="0" width="750.471" height="900"/></clipPath><g clip-path="url(#_clip1)"><circle cx="375.235" cy="376.98" r="375.235" style="fill:#ff6f61;"/><path d="M587.987,433.698c-0.247,1.366 25.299,-0.399 33.064,0.008c7.765,0.406 14.118,2.838 14.118,2.838c0,0 0.378,-12.63 -1.083,-14.906l-0.848,0c0,0 -4.752,0.432 -9.456,0.437c0,0 -26.292,0.377 -30.344,-0.071" style="stroke:#000;stroke-width:0.75px;"/><g><path d="M347.756,411.579c-1.293,-0.561 -9.616,7.023 -5.967,8.983c12.911,6.935 21.083,45.755 23.857,69.796c2.407,20.856 106.835,58.003 134.456,67.477c6.749,2.286 14.018,2.549 20.914,0.756c7.729,-2.036 16.663,-6.557 21.449,-16.592c9.571,-20.065 -3.987,-25.416 13.559,-44.142c-2.149,-8.112 1.857,-21.69 4.699,-29.684" style="fill:url(#_Linear2);stroke:#232222;stroke-width:1px;stroke-linecap:butt;stroke-linejoin:miter;stroke-miterlimit:10;"/><path d="M560.723,468.173l0,0c1.376,-3.87 2.479,-6.433 2.479,-6.433l13.558,-6.019c0,0 3.589,-1.672 0,-9.363c-3.814,-8.175 -19.744,-33.477 -26.481,-44.077c-0.119,-0.187 -0.235,-0.37 -0.348,-0.547c-1.663,-2.615 -2.681,-4.2 -2.681,-4.2l3.029,4.747l0.374,-0.565l18.5,-27.961l-18.874,28.526l18.874,-28.526l4.816,-7.321c0.237,-1.997 0.481,-4.054 0,-6.02c-0.864,-3.531 -2.848,-6.808 -3.988,-10.283c-2.56,-7.803 -0.635,-14.962 -1.955,-22.801c-0.655,-3.889 -1.638,-7.74 -2.765,-11.552c-6.573,-22.228 -16.765,-44.812 -31.794,-64.036c-6.851,-8.764 -15.179,-17.713 -26.021,-23.34c3.998,6.181 7.996,12.363 11.787,18.634c3.926,6.494 11.892,19.875 14.109,27.661c0.212,0.745 2.478,9.083 -0.269,11.822c-2.271,2.265 -6.44,-1.198 -7.519,-2.502c-7.921,-9.567 -5.989,-10.661 -15.76,-20.099c-3.582,-3.46 -7.752,-6.469 -11.876,-9.474c-2.202,-1.604 -5.37,-4.557 -7.839,-3.256c-0.761,0.401 -0.538,1.534 -0.26,2.251c0.775,2.001 2.22,3.774 3.324,5.663c10.656,18.233 11.809,17.812 18.349,37.378c0.936,2.801 3.071,6.732 0.533,8.716c-0.6,0.469 -1.757,-0.174 -2.329,-0.667c-1.695,-1.462 -2.845,-3.306 -4.225,-4.984c-10.641,-12.936 -10.749,-12.793 -23.529,-24.381c-1.539,-1.395 -3.21,-2.716 -5.084,-3.784c-0.624,-0.356 -1.683,-0.825 -2.219,-0.379c-1.851,1.537 0.545,4.372 1.317,6.458c1.808,4.884 10.004,18.406 3.869,24.011c-4.916,4.49 -15.647,1.785 -21.632,1.401c-1.549,-0.1 -3.198,-0.393 -4.021,0.971c-1.096,1.815 -0.576,5.292 -4.713,3.198c-3.3,-1.67 -6.082,-3.974 -9.03,-6.056c-2.526,-1.784 -4.681,-3.948 -7.384,-5.539c-0.366,-0.216 -1.23,0.103 -1.212,0.477c0.284,6.044 5.029,11.627 4.372,17.976c-0.144,1.392 -0.282,3.006 -1.434,4.016c-1.542,1.353 -6.207,-1.94 -6.475,-2.164c-14.861,-12.424 -13.596,-13.283 -28.585,-25.572c-1.882,-1.542 -4.029,-2.852 -6.213,-4.084c-0.991,-0.559 -3.376,-1.118 -3.579,-0.131c-1.206,5.865 3.255,12.965 5.264,17.654c3.259,7.608 6.843,15.118 9.954,22.77c1.664,4.092 3.224,8.228 4.363,12.445c0.182,0.674 4.177,9.318 -1.615,9.494c-5.36,0.162 -12.037,-3.833 -15.382,-6.322c-3.989,-2.968 -7.171,-6.624 -10.919,-9.804c-0.777,-0.66 -1.53,-1.61 -2.632,-1.694c-0.753,-0.058 -1.338,0.77 -1.571,1.374c-0.793,2.055 -1.537,17.021 -8.874,14.812c-10.309,-3.102 -15.46,-16.082 -20.646,-23.064c-0.984,-1.325 -3.634,-4.052 -4.565,-2.699c-1.732,2.515 -0.793,12.374 -0.808,13.002c-0.17,6.926 -1.644,14.264 -7.284,19.72c-2.483,2.402 -5.884,5.08 -10.032,4.592c-6,-0.707 -13.308,-6.457 -16.282,-8.989c-12.984,-11.056 -19.445,-21.201 -29.185,-34.674c-2.703,-3.74 -5.021,-7.673 -7.822,-11.362c-0.357,-0.47 -2.292,-2.281 -3.542,-1.418c-4.137,2.855 -1.141,15.655 -0.876,17.048c1.61,8.481 5.362,20.525 8.555,28.656c3.955,10.075 11.259,19.264 12.778,29.943c0.587,4.129 -4.414,3.082 -6.886,1.914c-6.673,-3.153 -5.774,-4.256 -12.919,-6.569c-3.441,-1.114 -5.26,1.115 -4.652,3.699c1.061,4.513 6.536,10.729 9.119,13.233c14.598,14.151 31.197,18.641 52.273,23.757c3.785,0.919 15.058,1.083 19.51,-0.609" style="fill:url(#_Linear3);stroke:#232222;stroke-width:1px;stroke-linecap:butt;stroke-linejoin:miter;stroke-miterlimit:10;"/></g><g><path d="M328.303,465.793c-1.621,-0.839 -12.057,10.501 -7.481,13.432c16.188,10.367 26.434,68.411 29.913,104.356c3.042,31.435 136.068,87.621 169.401,101.224c7.033,2.835 14.775,3.41 22.151,1.647c10.325,-2.463 23.462,-8.946 30.147,-25.659c12,-30 -5,-38 17,-66c-2.695,-12.128 2.328,-32.429 5.892,-44.382l0,0c1.725,-5.787 3.108,-9.618 3.108,-9.618l17,-9c0,0 4.5,-2.5 0,-14c-4.783,-12.222 -24.757,-50.053 -33.203,-65.902c-0.149,-0.28 -0.295,-0.553 -0.437,-0.819c-2.084,-3.908 -3.36,-6.279 -3.36,-6.279l3.797,7.098l0.469,-0.845l23.196,-41.806l-23.665,42.651l23.665,-42.651l6.038,-10.947c0.297,-2.986 0.603,-6.062 0,-9c-1.083,-5.28 -3.571,-10.179 -5,-15.375c-3.21,-11.668 -0.796,-22.372 -2.452,-34.093c-0.821,-5.814 -2.053,-11.572 -3.466,-17.271c-8.242,-33.235 -21.021,-67.003 -39.864,-95.745c-7.231,-11.03 -15.773,-22.256 -26.403,-30.55c-0.669,-0.497 -1.593,-0.463 -2.223,0.082c-0.63,0.546 -0.797,1.455 -0.401,2.188c3.793,7.046 7.562,14.106 11.18,21.243c4.922,9.71 14.91,29.718 17.689,41.359c0.266,1.113 3.107,13.58 -0.337,17.676c-2.847,3.385 -8.285,-1.662 -9.427,-3.741c-6.29,-11.455 -7.509,-15.941 -19.76,-30.052c-4.491,-5.173 -9.719,-9.672 -14.891,-14.165c-2.76,-2.398 -6.732,-6.814 -9.828,-4.869c-0.955,0.6 -0.674,2.294 -0.326,3.366c0.971,2.992 2.783,5.642 4.167,8.467c13.361,27.262 14.807,26.632 23.006,55.887c1.174,4.188 3.851,10.066 0.669,13.032c-0.752,0.702 -2.203,-0.261 -2.92,-0.998c-2.125,-2.185 -3.568,-4.942 -5.298,-7.451c-13.341,-19.342 -13.477,-19.128 -29.501,-36.454c-1.929,-2.086 -4.024,-4.061 -6.374,-5.658c-0.783,-0.532 -2.11,-1.233 -2.783,-0.567c-2.32,2.298 0.685,6.537 1.653,9.656c2.265,7.303 12.542,27.52 4.85,35.901c-6.164,6.714 -19.618,2.668 -27.123,2.094c-1.941,-0.149 -4.009,-0.587 -5.042,1.453c-1.373,2.713 -0.722,7.912 -5.908,4.781c-4.138,-2.497 -7.626,-5.942 -11.322,-9.055c-3.167,-2.668 -5.87,-5.903 -9.259,-8.282c-0.458,-0.322 -1.541,0.155 -1.519,0.714c0.356,9.037 6.306,17.384 5.482,26.876c-0.18,2.082 -0.354,4.495 -1.798,6.006c-1.933,2.023 -7.783,-2.902 -8.119,-3.237c-18.633,-18.575 -17.046,-19.859 -35.84,-38.233c-2.36,-2.307 -5.052,-4.266 -7.79,-6.107c-1.243,-0.836 -4.233,-1.672 -4.488,-0.196c-1.512,8.769 4.081,19.385 6.6,26.396c4.087,11.375 8.581,22.604 12.481,34.045c2.087,6.119 4.042,12.302 5.47,18.607c0.229,1.008 5.237,13.932 -2.025,14.195c-6.72,0.243 -15.091,-5.73 -19.286,-9.452c-5.001,-4.437 -8.991,-9.903 -13.69,-14.659c-0.975,-0.986 -1.919,-2.407 -3.3,-2.533c-0.945,-0.085 -1.678,1.153 -1.97,2.055c-0.995,3.072 -1.927,25.449 -11.127,22.147c-12.925,-4.639 -19.384,-24.047 -25.886,-34.485c-1.234,-1.982 -4.557,-6.058 -5.724,-4.036c-2.171,3.761 -0.994,18.502 -1.013,19.441c-0.213,10.356 -2.061,21.327 -9.133,29.485c-3.113,3.591 -7.377,7.595 -12.577,6.865c-7.524,-1.057 -16.687,-9.654 -20.415,-13.44c-16.28,-16.531 -24.381,-31.699 -36.593,-51.844c-3.389,-5.591 -6.296,-11.472 -9.808,-16.987c-0.447,-0.703 -2.873,-3.411 -4.44,-2.121c-5.188,4.269 -1.431,23.406 -1.099,25.49c2.019,12.681 6.723,30.688 10.726,42.846c4.959,15.063 14.117,28.803 16.021,44.77c0.736,6.173 -5.534,4.608 -8.633,2.861c-8.367,-4.714 -7.239,-6.363 -16.198,-9.822c-4.315,-1.666 -6.595,1.668 -5.833,5.531c1.331,6.748 8.196,16.043 11.434,19.786c18.304,21.158 39.114,27.872 65.54,35.521c4.746,1.374 18.881,1.619 24.463,-0.911" style="fill:#faefe3;stroke:#000;stroke-width:1px;stroke-linecap:butt;stroke-linejoin:miter;stroke-miterlimit:10;"/></g><path d="M533.262,591.456l30,-8c0,0 8,7 15,2l5,6" style="fill:none;stroke:#000;stroke-width:0.75px;stroke-linecap:butt;stroke-linejoin:miter;stroke-miterlimit:10;"/><path d="M556.262,594.456c0,0 15,3 21,0" style="fill:none;stroke:#000;stroke-width:0.75px;stroke-linecap:butt;stroke-linejoin:miter;stroke-miterlimit:10;"/><path d="M524.071,686.256c0,0 27,75 23,102c-4,27 -79,110 -79,110c-83.5,-15.5 -201.5,-134.5 -195.5,-159.5c45,-42 54.419,-201 54.419,-201l2.76,-52.192l24.852,66.602" style="fill:#fff;stroke:#0a0202;stroke-width:1px;stroke-linecap:butt;stroke-linejoin:miter;stroke-miterlimit:10;"/><path d="M524.071,686.256c0,0 27,75 23,102c-4,27 -79,110 -79,110c-83.5,-15.5 -201.5,-134.5 -195.5,-159.5c45,-42 54.419,-201 54.419,-201l2.76,-52.192l24.852,66.602" style="fill:#faefe3;stroke:#0a0202;stroke-width:1px;stroke-linecap:butt;stroke-linejoin:miter;stroke-miterlimit:10;"/><path d="M326.767,466.379c-4.295,3.149 -8.732,8.16 -7.014,12.168c1.12,2.613 8.745,2.247 17.327,30.719c4.579,15.191 9.43,38.593 13.711,75.037c12.466,40.234 173.28,101.953 173.28,101.953" style="fill:#fff;stroke:#4d4d4d;stroke-width:1px;stroke-linecap:butt;stroke-linejoin:miter;stroke-miterlimit:10;"/><path d="M232.343,232.641c0,0 -3.146,23.16 3.325,31.248c6.47,8.088 -2.623,-14.04 6.098,-26.138c3.974,-5.513 -5.151,-26.851 -9.423,-5.11Z" style="fill:none;stroke:#4d4d4d;stroke-width:1px;"/><path d="M232.343,232.641c0,0 -3.146,23.16 3.325,31.248c6.47,8.088 -2.623,-14.04 6.098,-26.138c3.974,-5.513 -5.151,-26.851 -9.423,-5.11Z" style="fill:#faefe3;stroke:#232222;stroke-width:1px;"/><path d="M335.507,307.455c0,0 0.417,-14.067 -4.884,-18.229c-5.301,-4.162 -13.255,-2.589 4.884,18.229" style="fill:#faefe3;stroke:#232222;stroke-width:1px;"/><path d="M434.646,433.836c0,0 20.447,-12.825 51.365,-14.52c0,0 -11.661,13.035 -0.508,29.039c0,0 -31.712,1.747 -50.857,-14.519Z" style="fill:#fff;"/><path d="M573.066,433.4c0,0 -6.165,-9.407 0.365,-10.609c3.791,-0.698 9.823,-3.134 21.535,-0.342c0,0 -4.738,16.545 -8.691,17.817c0,0 -7.676,1.266 -13.209,-6.866Z" style="fill:#fff;"/><path d="M515.9,180.959c0,0 -2.549,-9.63 -9.24,-14.634c-11.913,-8.908 -18.718,-17.831 -17.72,-24.315c1.685,-10.952 24.433,16.393 26.96,38.949Z" style="fill:#faefe3;stroke:#232222;stroke-width:1px;"/><path d="M492.408,448.009c-40.745,2.981 -57.762,-14.278 -57.762,-14.278c0,0 28.149,-17.285 61,-14" style="fill:none;stroke:#000;stroke-width:1px;stroke-linecap:butt;stroke-linejoin:miter;stroke-miterlimit:10;"/><path d="M579.978,421.459c0,0 13,-1 15,1c0,0 -4.65,15.751 -8,17.687l0.664,-0.538c-2.041,2.585 -9.664,-1.149 -9.664,-1.149" style="fill:none;stroke:#000;stroke-width:1px;stroke-linecap:butt;stroke-linejoin:miter;stroke-miterlimit:10;"/><path d="M587.642,421.172c0,0 -5.281,7.036 -1.164,19.094" style="fill:none;stroke:#000;stroke-width:1px;stroke-linecap:butt;stroke-linejoin:miter;stroke-miterlimit:10;"/><path d="M572.462,660.83c12,-30 -5,-38 17,-66c-2.695,-12.128 2.328,-32.429 5.892,-44.382" style="fill:none;stroke:#000;stroke-width:1px;stroke-linecap:butt;stroke-linejoin:miter;stroke-miterlimit:10;"/><path d="M334.386,529.756c0,0 -1.084,4.337 -4.052,6.625c-1.062,0.819 -2.366,1.375 -3.948,1.375c-6,0 -7,-11 -14,-14c-7,-3 -51,-36 -44,-90c4,-26 28,-28 44,-15c16,13 18,36 18,36" style="fill:#faefe3;stroke:#080000;stroke-width:1px;stroke-linecap:butt;stroke-linejoin:miter;stroke-miterlimit:10;"/><path d="M323.044,453.243c0,0 -6.532,-34.295 -32.878,-34.264c-5.531,-0.048 -10.456,3.494 -12.171,8.752c-3.696,11.699 -7.396,35.844 11.049,63.512" style="fill:none;stroke:#080000;stroke-width:1px;stroke-linecap:butt;stroke-linejoin:miter;stroke-miterlimit:10;"/><path d="M287.044,434.243c0,0 -6,54 25,67" style="fill:none;stroke:#080000;stroke-width:1px;stroke-linecap:butt;stroke-linejoin:miter;stroke-miterlimit:10;"/><path d="M290.044,452.243c0,0 7,13 22,0" style="fill:none;stroke:#080000;stroke-width:1px;stroke-linecap:butt;stroke-linejoin:miter;stroke-miterlimit:10;"/><path d="M306.044,462.243c0,0 -16,35 21,39" style="fill:none;stroke:#080000;stroke-width:1px;stroke-linecap:butt;stroke-linejoin:miter;stroke-miterlimit:10;"/><path d="M326.767,466.379c-4.295,3.149 -8.732,8.16 -7.014,12.168c1.12,2.613 8.745,2.247 17.327,30.719c4.579,15.191 9.43,38.593 13.711,75.037c12.466,40.234 173.28,101.953 173.28,101.953" style="fill:#faefe3;stroke:#080000;stroke-width:1px;stroke-linecap:butt;stroke-linejoin:miter;stroke-miterlimit:10;"/><path d="M272.351,740.128c0,0 46.83,-43.03 53.624,-200.801l0.977,-2.513c0,0 -6.184,-2.719 -9.4,-10.387c0,0 -2.226,-2.474 -7.173,-4.453c0,0 -38.688,-29.76 -42.745,-65.512c0,0 -42.164,-21.435 -44.063,-46.48c0,0 0.887,-4.402 5.32,-3.262c0,0 8.485,3.42 12.411,7.219c0,0 8.992,6.966 12.285,3.8c0,0 2.691,-1.855 -2.256,-15.184c-4.947,-13.328 -34.667,-83.888 -22.918,-101.204c0,0 3.401,-1.855 5.566,1.237c0,0 30.92,61.841 50.091,72.663c0,0 5.429,9.585 17.092,9.585c0,0 4.304,1.337 11.823,-6.974c0,0 3.878,-4.468 6.389,-11.425c0,0 13.719,55.27 23.381,61.067c9.663,5.798 12.261,174.391 46.08,192.509c0,0 -16.305,-12.079 -30.195,-10.267c0,0 -53.168,164.264 -39.266,193.855c0,0 -42.726,-38.774 -47.023,-63.473Z" style="fill:#511a67;fill-opacity:0.254902;"/><path d="M316.473,422.369c-4.606,-5.737 -13.964,-9.742 -13.964,-9.742c0,0 120.651,-7.488 148.336,-3.77c0,0 69.417,-14.875 106.191,4.546c0,0 6.076,2.783 14.327,2.571c0,0 48.932,-11.26 71.066,3.48c0.679,0.467 1.073,1.249 1.044,2.073c-0.075,3.42 -0.345,12.416 -1.027,14.122c0,0 -1.326,1.43 -1.759,3.055c0,0 -1.981,26.233 -13.325,33.281c0,0 -14.988,8.659 -32.582,3.487c0,0 -0.335,-0.737 -1.439,-2.972c3.719,2.665 18.066,1.71 18.066,1.71c5.144,-0.049 9.193,-1.193 12.25,-2.684c4.482,-2.099 7.969,-5.863 9.719,-10.492c6.403,-17.249 4.723,-33.463 3.995,-38.304c-0.177,-0.97 -0.745,-1.826 -1.571,-2.365c-12.141,-7.535 -35.889,-4.607 -42.672,-3.563c-7.04,1.083 -9.983,6.409 -10.831,9.748c-1.315,5.173 -1.73,22.047 -1.73,22.047l0.877,1.799c-4.077,-7.006 -8.56,-15.317 -12.414,-19.737c0,0 -2.48,-3.524 -5.537,3.918c-0.428,1.041 -0.409,0.666 -1.427,3.04c-1.257,2.928 -4.654,13.887 -10.861,22.967c-5.106,7.465 -13.124,12.429 -22.082,13.672c-14.284,1.895 -43.145,3.651 -57,-10.515c0,0 -8.673,-8.25 -10.154,-30.887c0,0 0.211,-8.039 -12.059,-8.462c0,0 -82.848,1.391 -93.002,0.757c0,0 -28.756,-2.442 -40.435,-2.78Zm168.228,-13.662c-6.158,2.07 -10.405,7.719 -10.684,14.21c-0.428,10.408 -0.954,33.327 2.389,38.905c0.007,0.013 0.014,0.026 0.021,0.04c0.465,0.858 9.007,15.329 52.165,9.442c9.655,-1.302 18.229,-6.834 23.394,-15.094c3.905,-6.24 7.148,-15.074 7.753,-27.476c0.012,-0.224 0.033,-0.447 0.063,-0.669c0.278,-2.374 0.317,-10.516 -9.879,-14.394c0,0 -28.941,-12.354 -62.79,-5.585c0,0 -0.978,0.132 -2.432,0.621Z" style="stroke:#000;stroke-width:1px;"/><path d="M413.406,407.582c0,0 102.005,-29.81 113.6,-20.471c11.595,9.339 4.767,5.817 4.767,8.256c0,2.439 -3.865,-6.515 -118.367,12.215Z" style="fill:#9a5291;fill-opacity:0.792157;"/><path d="M582.695,394.551c0,0 3.213,-8.402 8.916,-8.137c7.194,0.333 18.68,-0.227 20.264,10.855c0,0 -4.215,-4.587 -26.316,-3.01l-2.864,0.292Z" style="fill:#9a5291;fill-opacity:0.792157;"/><path d="M491.584,419.453c2,5 3.318,17.371 -1.005,28.61l-0.214,0.075l-5.192,0.217c-10.207,-17.302 0.984,-29.039 0.984,-29.039l2.114,0.039l3.313,0.098Z" style="fill:#fffbfb;stroke:#000;stroke-width:1px;stroke-linecap:butt;stroke-linejoin:miter;stroke-miterlimit:10;"/><path d="M480.882,408.78c-6.144,2.066 -10.381,7.702 -10.659,14.178c-0.427,10.383 -0.952,33.249 2.383,38.814c0.007,0.013 0.014,0.026 0.021,0.04c0.465,0.856 8.986,15.293 52.044,9.42c9.632,-1.299 18.186,-6.819 23.34,-15.059c3.896,-6.226 7.131,-15.039 7.735,-27.412c0.011,-0.223 0.032,-0.446 0.062,-0.668c0.277,-2.368 0.317,-10.491 -9.856,-14.36c0,0 -28.873,-12.326 -62.643,-5.572c0,0 -0.976,0.132 -2.427,0.619Z" style="fill:none;stroke:#000;stroke-width:1px;"/><path d="M578.723,445.316c0,0 -0.564,-13.573 0.748,-18.734c0.846,-3.331 3.782,-8.645 10.806,-9.725c6.767,-1.042 30.459,-3.963 42.572,3.554c0.824,0.539 1.391,1.392 1.568,2.36c0.726,4.83 2.403,21.006 -3.985,38.215c-1.747,4.618 -5.226,8.373 -9.697,10.467c-3.05,1.488 -7.089,2.629 -12.222,2.678c0,0 -12.047,0.393 -15.694,-2.308" style="fill:none;stroke:#000;stroke-width:1px;"/><path d="M301.162,412.485c0,0 119.543,-7.264 147.163,-3.554c0,0 69.255,-14.841 105.944,4.534c0,0 6.062,2.777 14.293,2.566c0,0 48.818,-11.234 70.901,3.471c0.677,0.466 1.07,1.246 1.042,2.068c-0.076,3.413 -0.345,12.388 -1.025,14.09c0,0 -1.322,1.427 -1.755,3.048c0,0 -3.296,28.63 -12.583,33.527c0,0 -12.981,8.348 -30.534,3.188c0,0 -15.447,-32.514 -26.537,-45.232c0,0 -3.218,-2.098 -7.36,4.4c-0.624,0.934 -1.103,1.956 -1.424,3.032c-1.02,3.012 -4.643,13.855 -10.835,22.914c-5.095,7.447 -13.094,12.4 -22.031,13.64c-14.251,1.891 -43.045,3.643 -56.867,-10.49c0,0 -8.654,-8.232 -10.131,-30.816c0,0 0.211,-8.02 -12.031,-8.442c0,0 -82.655,1.388 -92.786,0.755c0,0 -26.929,-2.746 -38.58,-3.084c0,0 0.181,0.152 0,0" style="fill:none;stroke:#000;stroke-width:1px;"/><path d="M358.514,143.074l-29.486,14.446l27.903,2.177l1.583,-16.623Z" style="fill:#f19683;"/><path d="M376.522,151.386l-19.591,8.311l1.583,-16.623l18.008,8.312Z" style="fill:#f4b69f;"/><path d="M391.957,154.354l-15.435,-2.968l-18.008,-8.312l33.443,11.28Z" style="fill:#f3b79f;"/><path d="M408.58,185.225l-16.623,5.343l5.541,-20.383l11.082,15.04Z" style="fill:none;"/><path d="M391.957,154.354l5.541,15.831l11.082,14.895l-16.623,-30.726Z" style="fill:#f2a790;"/><path d="M391.957,190.568l6.313,26.607l10.31,-32.095l-16.623,5.488Z" style="fill:#ee7564;"/><path d="M376.522,173.416l15.435,17.152l5.542,-20.371l-12.02,-7.42l-8.957,10.639Z" style="fill:#f5b8a3;"/><path d="M408.58,185.08l-11.081,-14.886l-5.542,20.374l16.623,-5.488Z" style="fill:#f29d89;"/><path d="M376.526,151.386l8.953,11.391l12.02,7.417l-5.542,-15.84l-15.431,-2.968Z" style="fill:#eebea7;"/><path d="M356.931,159.697l19.591,13.665l9.096,-10.585l-9.096,-11.391l-19.591,8.311Z" style="fill:#eebea7;"/><path d="M358.619,194.485l-1.688,-34.788l19.591,13.665l-17.903,21.123Z" style="fill:#f2a794;"/><path d="M391.957,190.568l-15.435,-17.206l-17.903,21.123l33.338,-3.917Z" style="fill:#f29d89;"/><path d="M391.957,190.568l-33.338,3.917l4.347,30.411l28.991,-34.328Z" style="fill:#ee7564;"/><path d="M356.931,159.697l-28.835,34.788l30.523,0l-1.688,-34.788Z" style="fill:#ee8975;"/><path d="M329.05,157.423l-0.954,37.062l28.835,-34.788l-27.881,-2.274Z" style="fill:#ee7564;"/><path d="M319.597,190.568l8.499,3.917l1.002,-37.062l-9.501,33.145Z" style="fill:#b64c3e;"/><path d="M326.565,210.078l-6.968,-19.51l8.499,3.917l-1.531,15.593Z" style="fill:#9f3f33;"/><path d="M342.514,212.611l-7.149,7.219l-8.8,-9.752l1.531,-15.593l14.418,18.126Z" style="fill:#8e372d;"/><path d="M358.619,194.485l-16.105,18.126l-14.418,-18.126l30.523,0Z" style="fill:#ee7564;"/><path d="M362.966,224.896l-20.452,-12.285l16.105,-18.126l4.347,30.411Z" style="fill:#c8584c;"/><path d="M348.223,227.809l14.743,-2.913l5.267,6.333l-20.01,-3.42Z" style="fill:#782e25;"/><path d="M335.365,219.83l12.858,7.979l14.743,-2.913l-20.452,-12.285l-7.149,7.219Z" style="fill:#782e25;"/><path d="M368.233,231.229l30.174,-14.054l-35.441,7.721l5.267,6.333Z" style="fill:#782e25;"/><path d="M391.957,190.568l-28.991,34.328l35.441,-7.721l-6.45,-26.607Z" style="fill:#c8584c;"/></g><defs><linearGradient id="_Linear2" x1="0" y1="0" x2="1" y2="0" gradientUnits="userSpaceOnUse" gradientTransform="matrix(-98.6499,-224.09,224.09,-98.6499,484.479,477.106)"><stop offset="0" style="stop-color:#fff;stop-opacity:1"/><stop offset="0.69" style="stop-color:#8a1080;stop-opacity:0.25098"/><stop offset="1" style="stop-color:#f46536;stop-opacity:0.686275"/></linearGradient><linearGradient id="_Linear3" x1="0" y1="0" x2="1" y2="0" gradientUnits="userSpaceOnUse" gradientTransform="matrix(-159.041,-276.933,276.933,-159.041,484.479,477.106)"><stop offset="0" style="stop-color:#fff;stop-opacity:1"/><stop offset="0.5" style="stop-color:#8a1080;stop-opacity:0.25098"/><stop offset="1" style="stop-color:#f46536;stop-opacity:0.686275"/></linearGradient></defs></svg>