<?xml version="1.0" encoding="utf-8"?>
<!-- Generator: Adobe Illustrator 22.1.0, SVG Export Plug-In . SVG Version: 6.00 Build 0)  -->
<svg version="1.1" id="Layer_1" xmlns="http://www.w3.org/2000/svg" xmlns:xlink="http://www.w3.org/1999/xlink" x="0px" y="0px"
	 viewBox="0 0 243.9 243.9" style="enable-background:new 0 0 243.9 243.9;" xml:space="preserve" fill="#ffffff">
<path d="M213.8,97.7c-2.5-1.2-5.6-1.7-9.6-1.7c-20.9,0-34.8,16.1-34.8,42.7c0,30.5,14.2,42.7,32.8,42.7c4,0,8.3-0.5,11.4-1.8v-82
	H213.8z M139.6,140.1c0-38.6,24.8-68.7,65.6-68.7c3.5,0,5.3,0,8.6,0.3V28.7c0-1,0.8-1.7,1.7-1.7h26.7c1.3,0,1.7,0.5,1.7,1.3v151.3
	c0,4.5,0,10.1,0.8,16.2c0,1.2,0,1.3-1,1.8c-13.9,6.6-28.5,9.6-42.4,9.6C165.3,207.4,139.6,185.2,139.6,140.1L139.6,140.1z
	 M83.2,113.3l46.4,89.9c0.8,1.3,0.3,2.6-1,2.6H99.7c-1.8,0-2.6-0.5-3.5-2.2c-10.6-21.9-21.4-44.5-32.5-68.1h-0.3
	C53.5,157.8,42.6,182,32,203.9c-0.8,1.3-1.7,1.8-3,1.8H1.5c-1.7,0-1.8-1.3-1-2.3l45.4-87.3L2,29.4c-1-1.3,0-2.5,1.2-2.5h28.5
	c1.7,0,2.5,0.3,3,1.8c10.4,22,21,43.7,31,65.9h0.3C75.5,72.7,86.1,50.7,96.2,29c0.8-1.3,1.3-2.2,3-2.2h26.7c1.3,0,1.8,1,1,2.5
	L83.2,113.3L83.2,113.3z"/>
</svg>
